HIERARCHY
ROOT root
{
	OFFSET 0.000000 0.000000 0.000000
	CHANNELS 6 Xposition Yposition Zposition Zrotation Yrotation Xrotation
	JOINT lhip
	{
		OFFSET 0.058581 -0.082280 -0.017664
		CHANNELS 3 Zrotation Yrotation Xrotation
		JOINT lknee
		{
			OFFSET 0.043451 -0.386469 0.008037
			CHANNELS 3 Zrotation Yrotation Xrotation
			JOINT lankle
			{
				OFFSET -0.014790 -0.426874 -0.037428
				CHANNELS 3 Zrotation Yrotation Xrotation
				JOINT ltoe
				{
					OFFSET 0.041054 -0.060286 0.122042
					CHANNELS 3 Zrotation Yrotation Xrotation
					End Site
					{
						OFFSET 0.000000 0.000000 0.000000
					}
				}
			}
		}
	}
	JOINT rhip
	{
		OFFSET -0.060310 -0.090513 -0.013543
		CHANNELS 3 Zrotation Yrotation Xrotation
		JOINT rknee
		{
			OFFSET -0.043257 -0.383688 -0.004843
			CHANNELS 3 Zrotation Yrotation Xrotation
			JOINT rankle
			{
				OFFSET 0.019056 -0.420046 -0.034562
				CHANNELS 3 Zrotation Yrotation Xrotation
				JOINT rtoe
				{
					OFFSET -0.034840 -0.062106 0.130323
					CHANNELS 3 Zrotation Yrotation Xrotation
					End Site
					{
						OFFSET 0.000000 0.000000 0.000000
					}
				}
			}
		}
	}
	JOINT lowerback
	{
		OFFSET 0.004439 0.124404 -0.038385
		CHANNELS 3 Zrotation Yrotation Xrotation
		JOINT upperback
		{
			OFFSET 0.004488 0.137956 0.026820
			CHANNELS 3 Zrotation Yrotation Xrotation
			JOINT chest
			{
				OFFSET -0.002265 0.056032 0.002855
				CHANNELS 3 Zrotation Yrotation Xrotation
				JOINT lowerneck
				{
					OFFSET -0.013390 0.211636 -0.033468
					CHANNELS 3 Zrotation Yrotation Xrotation
					JOINT upperneck
					{
						OFFSET 0.010113 0.088937 0.050410
						CHANNELS 3 Zrotation Yrotation Xrotation
						End Site
						{
							OFFSET 0.000000 0.000000 0.000000
						}
					}
				}
				JOINT lclavicle
				{
					OFFSET 0.071702 0.114000 -0.018898
					CHANNELS 3 Zrotation Yrotation Xrotation
					JOINT lshoulder
					{
						OFFSET 0.122921 0.045205 -0.019046
						CHANNELS 3 Zrotation Yrotation Xrotation
						JOINT lelbow
						{
							OFFSET 0.255332 -0.015649 -0.022946
							CHANNELS 3 Zrotation Yrotation Xrotation
							JOINT lwrist
							{
								OFFSET 0.265709 0.012698 -0.007375
								CHANNELS 3 Zrotation Yrotation Xrotation
								End Site
								{
									OFFSET 0.000000 0.000000 0.000000
								}
							}
						}
					}
				}
				JOINT rclavicle
				{
					OFFSET -0.082954 0.112472 -0.023707
					CHANNELS 3 Zrotation Yrotation Xrotation
					JOINT rshoulder
					{
						OFFSET -0.113228 0.046853 -0.008472
						CHANNELS 3 Zrotation Yrotation Xrotation
						JOINT relbow
						{
							OFFSET -0.260127 -0.014369 -0.031269
							CHANNELS 3 Zrotation Yrotation Xrotation
							JOINT rwrist
							{
								OFFSET -0.269108 0.006794 -0.006027
								CHANNELS 3 Zrotation Yrotation Xrotation
								End Site
								{
									OFFSET 0.000000 0.000000 0.000000
								}
							}
						}
					}
				}
			}
		}
	}
}
MOTION
Frames: 14
Frame Time: 0.033333
0.139847 1.206794 0.978850 -99.077605 -1.116402 87.039711 -1.244006 -7.016841 -17.715211 -1.301690 -2.004206 8.715690 1.301842 8.793562 -3.509291 0.000000 -0.000000 0.000000 -0.642001 -3.178699 20.750611 -0.379579 12.312221 15.150846 7.167904 -0.264715 -11.829432 0.000000 -0.000000 0.000000 -0.235736 9.453295 11.599482 -1.591993 -1.436254 -0.066352 -1.084613 1.825746 2.752289 -2.802184 6.075776 -8.196797 -1.152903 1.530825 -1.046323 -25.863469 3.515051 -1.537508 -59.069187 -1.371469 8.694419 5.619614 -16.767055 8.987214 -6.093874 -4.087834 -5.760329 24.606038 0.429137 0.480885 58.732771 4.302821 14.166202 -13.550710 29.410750 -4.297848 6.699857 7.488128 -10.472848 
0.095585 1.204588 0.982761 -98.216210 -2.049882 86.784539 -2.535910 -9.708622 -16.294382 -2.145966 -2.157386 11.612944 2.315211 9.989118 -2.735756 0.000000 -0.000000 0.000000 -0.948704 -2.414944 18.271993 0.032657 11.800048 23.622264 9.255188 -0.804728 -5.795522 0.000000 -0.000000 0.000000 -1.619804 9.537815 11.040482 -1.490507 -1.688448 0.340602 -1.124831 1.513010 2.828388 -2.891613 5.181605 -7.792379 -0.174624 1.755128 -1.643158 -25.538446 2.326846 -1.294847 -58.997406 -2.583611 8.732659 6.590004 -15.777583 6.465480 -6.491179 -3.210662 -6.249480 25.035299 0.386038 0.925887 59.813437 3.147750 14.442834 -14.754257 27.527051 -5.611830 7.759560 6.904934 -10.661645 
0.053299 1.201937 0.986384 -97.404510 -2.590916 86.388785 -4.293395 -9.902984 -13.652476 -2.663625 -3.888797 12.148297 5.571563 10.347039 -2.895400 0.000000 -0.000000 0.000000 -0.070672 -0.010373 14.060983 1.291340 11.270482 34.262093 10.701308 -1.846191 2.291366 0.000000 -0.000000 0.000000 -2.703435 8.334359 10.881616 -1.196370 -1.183185 0.491031 -1.168083 1.561913 2.757491 -2.907820 4.594532 -7.075035 0.159284 2.334075 -1.826392 -24.744095 1.369320 -0.953734 -59.549022 -3.678004 9.199637 6.740775 -15.242399 6.999039 -7.763314 -3.116900 -6.285045 24.735851 0.398166 1.087406 60.824718 2.023502 15.019151 -14.546762 25.562322 -5.842126 9.484230 6.584951 -11.391827 
0.013372 1.199770 0.990185 -96.786604 -3.017378 86.001654 -5.900097 -9.868931 -10.765919 -2.880627 -5.113934 12.138707 8.116049 10.872928 -3.515736 0.000000 -0.000000 0.000000 0.062144 1.081216 9.270486 2.917394 11.221158 44.047273 10.224298 -2.474800 9.564141 0.000000 -0.000000 0.000000 -3.298120 6.958653 11.102049 -0.967784 -0.955462 0.270941 -1.252120 1.293121 2.719158 -3.048599 4.112535 -6.792682 0.092281 2.947315 -1.303612 -24.687296 0.921717 -0.997438 -59.200940 -4.770745 9.301436 6.509494 -15.200464 7.177751 -8.492259 -2.919325 -6.104255 24.659991 0.717960 1.359240 60.847068 1.494278 15.921148 -13.642593 23.833186 -4.855432 10.322405 5.988454 -10.421232 
-0.025844 1.198106 0.994433 -95.827097 -3.018952 85.232261 -7.068961 -9.429697 -7.076357 -3.009698 -6.884697 11.427516 9.089631 11.680138 -4.917210 0.000000 -0.000000 0.000000 0.347654 1.862594 5.157369 4.125640 9.955528 51.640173 9.661040 -3.371970 9.576580 0.000000 -0.000000 0.000000 -3.366137 5.503489 11.462050 -0.634243 -0.915105 0.269468 -1.174008 0.547651 2.840454 -3.139570 4.698280 -6.368140 -0.668894 3.753176 -0.683835 -24.848691 0.212339 -1.169489 -58.677243 -5.558623 9.366550 6.334186 -15.713512 6.931390 -8.851571 -2.929008 -6.025808 24.853328 0.869566 1.142890 60.074899 0.754058 16.542622 -12.619293 23.282857 -3.196615 11.856517 6.053831 -9.261955 
-0.063044 1.196453 0.998664 -94.609540 -2.443601 84.587656 -7.630082 -7.916398 -3.386487 -2.771721 -9.510818 10.387685 9.181007 11.774630 -6.201197 0.000000 -0.000000 0.000000 0.597763 2.190108 0.689121 3.504016 6.548957 57.030445 8.068611 -4.543278 3.794531 0.000000 -0.000000 0.000000 -2.628552 3.668016 11.920234 -0.417668 -0.852161 -0.032759 -1.292136 -0.181120 3.092873 -2.709594 5.671341 -5.901413 -1.254426 3.817159 -0.322361 -24.772157 -0.768970 -0.940385 -58.272596 -6.673133 9.432212 6.316686 -16.568573 7.051155 -8.661187 -2.997393 -5.375014 25.090557 0.951479 1.010715 59.853953 -0.088702 16.284462 -12.576486 23.375382 -2.450937 12.661213 5.988116 -8.585287 
-0.100386 1.195340 1.002134 -93.507216 -1.892497 83.788824 -7.913894 -6.503457 0.816164 -2.376623 -11.664117 8.637554 9.257970 11.913223 -7.497572 0.000000 -0.000000 0.000000 0.609562 2.835638 -3.608103 2.264463 2.926923 59.933746 6.422804 -6.614918 -0.052173 0.000000 -0.000000 0.000000 -1.950766 1.836690 12.261659 -0.250164 -0.813115 0.075836 -1.271285 -0.596320 3.043777 -2.584272 6.378090 -5.110931 -1.638050 4.229197 -0.010595 -24.250296 -1.697660 -0.760906 -58.227209 -7.807952 9.527457 6.263212 -17.342912 7.565297 -8.737229 -2.659966 -4.980160 24.964944 0.813781 0.999072 60.091886 -0.983783 15.612776 -12.957990 23.570879 -2.842035 12.654783 5.559528 -8.960629 
-0.135168 1.195026 1.004105 -92.335313 -1.286594 83.454348 -7.602409 -5.443817 4.095941 -2.259356 -13.656505 7.416603 9.022047 11.770274 -8.814980 0.000000 -0.000000 0.000000 0.776703 3.342485 -8.269619 1.408437 0.736466 60.897930 4.979492 -8.300957 -4.780932 0.000000 -0.000000 0.000000 -1.499415 0.057073 12.732000 0.036648 -0.992575 -0.258080 -1.035707 -0.961161 3.021947 -2.410232 7.277412 -5.010991 -1.923596 4.273373 0.508740 -23.558988 -2.195288 -0.734293 -58.423753 -9.001191 9.655343 5.983930 -18.661126 7.609107 -8.503709 -2.464348 -5.557962 24.735219 0.631744 1.193605 60.338151 -1.589790 15.004623 -13.325550 24.148285 -3.749865 12.258643 5.728734 -9.894084 
-0.168881 1.195488 1.004459 -91.279041 -0.756557 83.215369 -7.149852 -4.169401 7.244219 -1.952229 -15.327960 6.113787 8.707396 11.571748 -10.036987 0.000000 -0.000000 0.000000 0.603025 3.943507 -12.210676 0.674278 -1.175241 58.998271 4.424072 -8.729858 -10.140675 0.000000 -0.000000 0.000000 -1.153882 -1.388205 13.249456 0.317723 -1.080822 -0.560474 -0.685522 -1.475196 3.061814 -2.513746 8.175967 -5.269390 -2.293659 3.977366 1.137637 -23.008447 -2.453133 -0.946072 -58.496301 -10.335262 9.784635 5.816016 -20.201660 7.258520 -7.337728 -2.595164 -5.675633 24.661063 0.396204 1.100074 60.337096 -1.999266 14.483541 -13.731082 24.404524 -4.170940 11.767687 6.010991 -10.346305 
-0.201402 1.196459 1.002540 -90.418808 -0.556962 83.454545 -6.567304 -2.001374 9.421985 -1.809881 -16.930003 5.207000 8.218985 10.808587 -11.278677 0.000000 -0.000000 0.000000 0.423630 2.823602 -15.916026 0.112234 -1.032317 54.596383 4.056810 -8.663695 -14.017868 0.000000 -0.000000 0.000000 -1.169364 -2.336039 13.332311 0.533388 -1.198720 -0.901475 -0.368876 -1.853564 3.231557 -2.264903 8.987008 -5.554499 -2.476319 3.837178 1.793451 -22.464145 -2.473027 -1.276656 -58.186006 -11.747428 9.944817 5.164787 -22.403611 7.942660 -6.970839 -3.314324 -5.659275 24.868042 -0.028636 0.868878 60.040946 -2.060694 13.936194 -13.600895 24.417568 -4.385907 10.783999 5.961952 -10.134218 
-0.235203 1.197650 0.999594 -89.412738 -0.071433 83.316887 -6.150873 -2.076058 12.553112 -1.161181 -17.589381 3.685520 7.684162 11.301892 -12.428038 0.000000 -0.000000 0.000000 -0.000017 4.564422 -18.053232 -0.233023 -3.417706 47.922595 4.927937 -9.484314 -15.675130 0.000000 -0.000000 0.000000 -0.865609 -3.484579 13.951630 0.619075 -1.291751 -1.398735 -0.029660 -2.215989 3.276303 -2.263643 9.385637 -5.569171 -2.480550 3.728045 1.953325 -21.996773 -2.601225 -1.189957 -58.105361 -13.040652 10.241145 5.684976 -24.299170 7.255546 -6.373929 -3.534988 -6.107938 25.070202 -0.256045 1.110098 59.865282 -2.194469 14.108551 -14.115544 24.737848 -4.271297 10.514338 5.513335 -9.823337 
-0.268026 1.199060 0.995245 -88.577376 0.083772 83.580693 -5.405004 -1.072989 14.706885 -1.242743 -18.418621 2.975991 6.825036 10.981522 -13.796516 0.000000 -0.000000 0.000000 -0.295016 4.669152 -19.691735 -1.033478 -4.975301 39.250124 5.652675 -10.073455 -16.646716 0.000000 -0.000000 0.000000 -0.760558 -4.132061 14.222692 0.574622 -1.265398 -1.535152 0.310853 -2.524701 3.129774 -2.457756 9.747835 -6.101528 -2.240437 3.570303 2.284914 -21.551829 -2.879605 -1.153136 -57.741187 -14.120971 10.541250 5.694762 -26.223324 7.195735 -4.947738 -4.479732 -6.039393 25.036395 -0.331112 0.926978 60.075781 -2.249054 13.943964 -14.008773 24.527030 -4.316327 9.685434 5.647929 -9.923638 
-0.300599 1.199690 0.990852 -87.700103 -0.075574 84.073926 -4.817707 0.318214 16.129682 -1.480722 -18.882329 3.007719 5.472524 9.859342 -14.818269 0.000000 -0.000000 0.000000 -0.206082 3.168110 -20.093365 -1.475941 -4.829219 28.463387 5.700758 -10.045112 -15.440097 0.000000 -0.000000 0.000000 -0.642484 -4.369125 14.065255 0.347024 -1.605969 -1.516664 0.566920 -2.679055 3.283226 -2.869408 9.641517 -6.692960 -1.878646 3.415645 2.354138 -21.158317 -3.056006 -1.256217 -57.683275 -15.247494 10.722850 5.772782 -27.936366 7.027404 -3.659071 -5.364928 -6.233921 25.133090 -0.312448 0.837072 60.312621 -2.044986 13.758890 -13.971936 24.115427 -4.511820 8.926925 5.675630 -10.026563 
-0.334813 1.201077 0.985620 -86.963462 -0.398231 84.658021 -4.432021 1.012587 17.553099 -1.868501 -18.603705 3.160315 5.090552 9.207219 -15.524665 0.000000 -0.000000 0.000000 -0.325608 2.802455 -19.504519 -1.453761 -4.754870 17.145579 6.628314 -9.310165 -13.617665 0.000000 -0.000000 0.000000 -0.714381 -4.418453 13.825862 0.136619 -1.869551 -1.596483 0.782832 -2.745120 3.049457 -3.296499 9.411807 -6.709772 -1.427637 3.261166 2.361920 -20.890536 -2.961560 -1.075419 -57.680620 -16.028307 10.874336 6.082234 -29.457532 6.777498 -3.103730 -5.732134 -6.503874 25.286567 -0.369875 0.988910 60.358683 -2.032200 13.865239 -13.828209 23.725550 -4.167379 8.766649 5.706893 -9.723729 
